<?xml version="1.0" encoding="UTF-8"?>
<svg version="1.1" xmlns="http://www.w3.org/2000/svg" width="807" height="271">
<path d="M0 0 C266.31 0 532.62 0 807 0 C807 89.43 807 178.86 807 271 C540.69 271 274.38 271 0 271 C0 181.57 0 92.14 0 0 Z " fill="#FDFEFE" transform="translate(0,0)"/>
<path d="M0 0 C7.84014061 4.6564371 11.69981774 9.87986686 14.5625 18.515625 C15.65068668 23.14041841 15.93420733 27.72760768 15.25 32.4375 C14.59 33.4275 13.93 34.4175 13.25 35.4375 C11.26315308 35.79826355 11.26315308 35.79826355 8.80029297 35.77807617 C7.87948944 35.77784958 6.95868591 35.77762299 6.00997925 35.77738953 C5.01410797 35.76190567 4.01823669 35.74642181 2.9921875 35.73046875 C1.97399933 35.72622391 0.95581116 35.72197906 -0.0932312 35.71760559 C-3.35408673 35.70077579 -6.61433041 35.66311546 -9.875 35.625 C-12.08202234 35.60995874 -14.28905434 35.59626937 -16.49609375 35.58398438 C-21.91427223 35.5508583 -27.33209242 35.50061653 -32.75 35.4375 C-32.30661388 37.3652412 -31.85277134 39.29057937 -31.39453125 41.21484375 C-31.01711792 42.8234729 -31.01711792 42.8234729 -30.63208008 44.46459961 C-29.09877538 49.63234146 -26.5559711 52.08302167 -22.25 55.3125 C-15.92329622 57.34608336 -9.12582483 57.75133453 -2.859375 55.3125 C-1.20024532 54.43822807 0.4348155 53.51535346 2.03125 52.53125 C4.66354233 51.23364111 6.34914821 51.11677876 9.25 51.4375 C11.625 53.125 11.625 53.125 13.25 55.4375 C13.5 57.8125 13.5 57.8125 12.25 60.4375 C4.87319585 67.98585773 -4.09236049 69.71666749 -14.25 69.875 C-24.0902258 69.79669866 -31.63020523 67.41803241 -38.92578125 60.56640625 C-48.24720687 49.68808298 -48.69901534 37.63018367 -48.01953125 23.95556641 C-47.1759266 16.07428168 -42.56276331 9.08014564 -36.69140625 3.90625 C-26.01443847 -4.17129504 -12.31082832 -5.71025952 0 0 Z " fill="#16407A" transform="translate(385.75,97.5625)"/>
<path d="M0 0 C1.91635217 -0.05423638 3.83314925 -0.09289963 5.75 -0.125 C7.35101563 -0.15980469 7.35101563 -0.15980469 8.984375 -0.1953125 C11.99047341 -0.00061701 13.55936713 0.27557993 16 2 C19.84327603 7.77180164 21.48405055 15.29268973 23.55859375 21.86328125 C24.64938553 25.14718628 25.95077011 28.3081584 27.3046875 31.4921875 C30.12042034 38.16223887 32.56561149 44.93823725 34.96704102 51.76538086 C35.69324262 53.82881714 36.42535681 55.89008732 37.15820312 57.95117188 C39.27335794 63.92993604 41.30533003 69.88797158 43 76 C43.38091797 74.62328125 43.38091797 74.62328125 43.76953125 73.21875 C44.11371094 71.9915625 44.45789063 70.764375 44.8125 69.5 C45.14894531 68.2934375 45.48539062 67.086875 45.83203125 65.84375 C46.79579246 62.54919916 47.97690677 59.35964636 49.19203186 56.14907837 C50.47491192 52.73680301 51.69809175 49.3035266 52.92578125 45.87109375 C53.4809895 44.324823 54.03633247 42.77860062 54.59179688 41.23242188 C55.44848312 38.84640828 56.30440667 36.46013468 57.15795898 34.07299805 C59.07818395 28.70518522 61.02507557 23.34792802 63 18 C63.26842712 17.26742981 63.53685425 16.53485962 63.81341553 15.78009033 C64.58412974 13.69278092 65.3727634 11.61323997 66.16796875 9.53515625 C66.61809326 8.34414307 67.06821777 7.15312988 67.53198242 5.92602539 C69.04393932 2.91242095 70.09106205 1.63582869 73 0 C75.47265625 -0.328125 75.47265625 -0.328125 78.0625 -0.25 C78.91972656 -0.23453125 79.77695312 -0.2190625 80.66015625 -0.203125 C83 0 83 0 86 1 C85.69389372 5.48955881 84.67103457 9.03550735 82.8828125 13.16796875 C80.75804196 18.17086169 78.71175218 23.19609473 76.72265625 28.25390625 C76.4317511 28.99292679 76.14084595 29.73194733 75.84112549 30.49336243 C75.23051613 32.04567969 74.62026443 33.59813767 74.01034546 35.15072632 C72.37254511 39.31807633 70.72911988 43.4832073 69.0859375 47.6484375 C68.74997055 48.50014023 68.4140036 49.35184296 68.06785583 50.22935486 C64.75912101 58.61479306 61.44411213 66.99769586 58.10861206 75.37252808 C57.49710064 76.90940056 56.88683976 78.44677125 56.27786255 79.98464966 C55.43203297 82.12000404 54.58183676 84.25356764 53.73046875 86.38671875 C53.24989014 87.59545654 52.76931152 88.80419434 52.27416992 90.04956055 C51 93 51 93 49 96 C45.9609375 96.29296875 45.9609375 96.29296875 42.375 96.1875 C41.18648438 96.16042969 39.99796875 96.13335937 38.7734375 96.10546875 C37.85820312 96.07066406 36.94296875 96.03585938 36 96 C32.56115081 89.36577959 29.53557911 82.67521251 26.8125 75.71875 C26.4324884 74.75845886 26.05247681 73.79816772 25.66094971 72.80877686 C24.43559518 69.70780967 23.21724041 66.6041604 22 63.5 C21.1559894 61.35381562 20.31191335 59.20765697 19.46777344 57.06152344 C17.77622087 52.75665954 16.08874666 48.45022596 14.40429688 44.14257812 C12.54798201 39.39569996 10.68095304 34.65316255 8.8092041 29.91235352 C7.56588692 26.75618116 6.33235616 23.59626885 5.10253906 20.43481445 C4.53717849 18.98595656 3.9682033 17.53850359 3.39550781 16.0925293 C2.61247759 14.11248216 1.84347486 12.1275599 1.078125 10.140625 C0.64918945 9.04266602 0.22025391 7.94470703 -0.22167969 6.81347656 C-1.00553857 3.97997914 -1.05149358 2.6980184 0 0 Z " fill="#16407B" transform="translate(255,70)"/>
<path d="M0 0 C0.79881592 0.00161133 1.59763184 0.00322266 2.4206543 0.00488281 C8.41334629 0.12966685 13.12191736 0.99794491 18.1875 4.375 C19.115625 4.9525 20.04375 5.53 21 6.125 C25.81877058 11.08144973 28.310804 17.51963267 28.31689453 24.38134766 C28.32004669 25.39895172 28.32319885 26.41655579 28.32644653 27.46499634 C28.3244223 28.56193817 28.32239807 29.65888 28.3203125 30.7890625 C28.32126923 31.91444427 28.32222595 33.03982605 28.32321167 34.1993103 C28.32389238 36.5781866 28.32204568 38.95706476 28.31787109 41.3359375 C28.31251139 44.99222953 28.31782492 48.64839926 28.32421875 52.3046875 C28.32355815 54.61197944 28.32227735 56.9192713 28.3203125 59.2265625 C28.32233673 60.3275528 28.32436096 61.42854309 28.32644653 62.56289673 C28.32171829 64.07984634 28.32171829 64.07984634 28.31689453 65.62744141 C28.31609894 66.5221817 28.31530334 67.416922 28.31448364 68.33877563 C28.1875 70.375 28.1875 70.375 27.1875 71.375 C23.9375 71.75 23.9375 71.75 20.1875 71.375 C17.02795695 68.83362841 15.47209114 67.22877341 14.1875 63.375 C13.65640625 63.78492188 13.1253125 64.19484375 12.578125 64.6171875 C11.87171875 65.15601563 11.1653125 65.69484375 10.4375 66.25 C9.74140625 66.78367187 9.0453125 67.31734375 8.328125 67.8671875 C1.42588868 72.7289817 -6.56837619 73.21695307 -14.8125 72.375 C-21.02834498 70.47197924 -24.55216829 67.12584031 -27.890625 61.5859375 C-29.76568157 57.08897979 -29.31876639 52.14287586 -28.8125 47.375 C-25.96254975 41.21910746 -20.37517239 36.33953815 -14.1875 33.5625 C-8.01377837 31.39026461 -2.48271888 31.24965485 4 31.3125 C4.88365234 31.31701172 5.76730469 31.32152344 6.67773438 31.32617188 C8.84768559 31.33790134 11.01760172 31.35583505 13.1875 31.375 C12.87060685 22.08306371 12.87060685 22.08306371 8.1875 14.375 C2.52840994 12.48863665 -4.20915175 12.37019967 -9.75 14.75 C-11.49635669 15.67663825 -13.23347979 16.62263517 -14.9375 17.625 C-17.61764317 18.69705727 -19.12218157 18.34075534 -21.8125 17.375 C-23.6875 15.625 -23.6875 15.625 -24.8125 13.375 C-24.59622933 10.23153089 -24.28919792 8.81958353 -21.95703125 6.64453125 C-21.18746094 6.16371094 -20.41789063 5.68289062 -19.625 5.1875 C-18.86832031 4.69894531 -18.11164062 4.21039063 -17.33203125 3.70703125 C-11.5454721 0.6477806 -6.42777856 -0.01340936 0 0 Z " fill="#19437C" transform="translate(650.8125,94.625)"/>
<path d="M0 0 C5.92204559 4.30164335 8.32672754 8.96955297 10 16 C10.37983484 20.01924835 10.35139537 24.00098344 10.29296875 28.03515625 C10.28872391 29.15442001 10.28447906 30.27368378 10.28010559 31.42686462 C10.26342531 34.97232983 10.22579232 38.51720902 10.1875 42.0625 C10.17243943 44.47850737 10.15875343 46.89452372 10.14648438 49.31054688 C10.11355674 55.20722836 10.06346435 61.10357229 10 67 C8.37581255 67.08090971 6.75048255 67.13914995 5.125 67.1875 C4.22007812 67.22230469 3.31515625 67.25710937 2.3828125 67.29296875 C1.20332031 67.14794922 1.20332031 67.14794922 0 67 C-2 64 -2 64 -2 60 C-2.79664063 60.48210937 -3.59328125 60.96421875 -4.4140625 61.4609375 C-5.47367188 62.09257812 -6.53328125 62.72421875 -7.625 63.375 C-8.66914062 64.00148438 -9.71328125 64.62796875 -10.7890625 65.2734375 C-18.5531833 69.44830538 -26.77399244 70.50352533 -35.41015625 68.41796875 C-41.09080092 66.02093372 -44.65374121 61.6258833 -47 56 C-47.95125349 50.78274045 -47.82602606 45.90242367 -45.375 41.125 C-39.56745445 33.4834927 -32.87981854 30.95993951 -24 28 C-22.51876453 27.9193378 -21.03417796 27.89238807 -19.55078125 27.90234375 C-18.70322266 27.90556641 -17.85566406 27.90878906 -16.98242188 27.91210938 C-16.10134766 27.92048828 -15.22027344 27.92886719 -14.3125 27.9375 C-12.97348633 27.94426758 -12.97348633 27.94426758 -11.60742188 27.95117188 C-9.40488013 27.96295017 -7.20247401 27.97939836 -5 28 C-5.10152934 20.04574021 -5.10152934 20.04574021 -7.9375 12.8125 C-12.01665265 9.22779009 -15.78574761 9.66682093 -21 10 C-24.90057348 10.61076595 -28.27710231 11.56289907 -31.6875 13.625 C-34.41817986 15.24864748 -35.87550419 15.49334144 -39 15 C-41.63165084 13.36656155 -41.94962977 12.20606004 -42.6875 9.1875 C-41.75792209 4.87763878 -39.83644646 3.69497158 -36.24609375 1.32421875 C-26.44018182 -4.45700585 -10.27776294 -6.06733484 0 0 Z " fill="#18427B" transform="translate(567,98)"/>
<path d="M0 0 C2.1953125 1.80078125 2.1953125 1.80078125 3.07421875 4.36328125 C3.21206185 7.13792947 2.65930871 8.47561079 1.1953125 10.80078125 C-2.48641242 11.07017576 -4.61223392 10.89134764 -7.9921875 9.30078125 C-13.44001266 6.74066742 -20.03263098 6.80421548 -25.640625 8.8203125 C-26.35476563 9.14386719 -27.06890625 9.46742187 -27.8046875 9.80078125 C-27.96770255 11.21357831 -28.0835672 12.63186253 -28.1796875 14.05078125 C-28.24929688 14.8396875 -28.31890625 15.62859375 -28.390625 16.44140625 C-27.98512233 19.05953165 -27.98512233 19.05953165 -25.34765625 20.875 C-21.36882734 23.23104015 -17.07270954 24.78240979 -12.7421875 26.36328125 C1.91799735 31.76062277 1.91799735 31.76062277 5.1953125 38.80078125 C5.91805127 44.4731855 6.32172114 50.52342813 3.6328125 55.73828125 C-1.46444765 62.14253118 -6.5893601 66.346741 -14.8046875 67.80078125 C-24.49585151 68.61783489 -34.59034793 68.53060109 -42.4296875 62.11328125 C-43.6053125 60.96859375 -43.6053125 60.96859375 -44.8046875 59.80078125 C-44.27399689 55.97980886 -43.30767184 53.73906722 -40.8046875 50.80078125 C-36.36401131 51.31713895 -33.55900595 52.42963275 -29.8046875 54.80078125 C-24.2638889 56.54183898 -18.05425545 56.81079135 -12.7421875 54.42578125 C-10.707626 52.93825626 -10.707626 52.93825626 -9.8046875 50.80078125 C-9.33506921 46.76053764 -9.33506921 46.76053764 -11.0078125 43.26171875 C-13.15829325 41.5132844 -15.27015958 40.48687284 -17.8046875 39.36328125 C-18.77664063 38.93144531 -19.74859375 38.49960938 -20.75 38.0546875 C-23.69672395 36.84509877 -26.6599473 35.81145311 -29.6796875 34.80078125 C-36.1421157 32.50855245 -39.69309076 28.87662892 -42.8046875 22.80078125 C-43.59228073 17.19538796 -43.8775778 10.95796744 -41.2421875 5.80078125 C-30.91810446 -6.9057825 -13.83923626 -7.14104591 0 0 Z " fill="#16417C" transform="translate(505.8046875,99.19921875)"/>
<path d="M0 0 C0.60735992 0.214785 1.21471985 0.42957001 1.84048462 0.65086365 C4.24820684 1.83823377 5.44211072 2.79335334 7 5 C8.00547617 10.11333455 7.81424532 15.18196813 7.68359375 20.36328125 C7.6705296 21.88068862 7.66056928 23.39812561 7.65357971 24.91557312 C7.62691679 28.89973199 7.55821458 32.88208986 7.48065186 36.86553955 C7.40890151 40.9342004 7.37704335 45.00315379 7.34179688 49.07226562 C7.26683758 57.04900144 7.14745003 65.02427638 7 73 C-2.03185814 69.44755388 -11.56523021 65.54030466 -18 58 C-20.99143768 51.07822116 -20.59510479 43.54832712 -20.22290039 36.15136719 C-20.0617424 32.73393479 -20.07907705 29.35008444 -20.11914062 25.9296875 C-19.95859602 9.42854676 -19.95859602 9.42854676 -15.13623047 4.41601562 C-10.6038637 0.7484464 -5.7861338 -2.28059222 0 0 Z " fill="#3F7EC6" transform="translate(138,130)"/>
<path d="M0 0 C4.08466176 1.63386471 7.00514659 3.17652934 10.59765625 5.58984375 C11.64630859 6.29173828 12.69496094 6.99363281 13.77539062 7.71679688 C14.86013672 8.44962891 15.94488281 9.18246094 17.0625 9.9375 C18.15111328 10.66646484 19.23972656 11.39542969 20.36132812 12.14648438 C23.24962901 14.08564515 26.13600118 16.02511834 29 18 C29.7530542 18.47445557 30.5061084 18.94891113 31.28198242 19.43774414 C34.13721631 22.03411215 33.88575991 24.83579168 34.16748047 28.52832031 C34.50942692 40.84243923 34.50942692 40.84243923 31.63769531 44.94726562 C27.976351 48.3451591 23.65240992 50.56706564 19.22021484 52.80566406 C15.62847438 54.73779452 12.44211826 57.18033886 9.1875 59.625 C3.45485872 63.84838043 3.45485872 63.84838043 0 65 C0 43.55 0 22.1 0 0 Z " fill="#346EBB" transform="translate(81,93)"/>
<path d="M0 0 C0 21.45 0 42.9 0 65 C-4.57640959 62.7117952 -8.72763502 59.97690749 -12.91625977 57.05908203 C-16.15585128 54.81692001 -19.27507614 52.79821124 -22.875 51.18359375 C-27.79093519 48.6878942 -30.92382103 46.67470758 -32.98486328 41.55224609 C-34.98511152 34.21292257 -35.36194837 26.9609358 -32 20 C-25.25195692 12.81324117 -16.45860157 8.07507287 -7.8190918 3.49853516 C-1.23753666 0 -1.23753666 0 0 0 Z " fill="#71B2E1" transform="translate(215,93)"/>
<path d="M0 0 C1.04542969 0.01546875 2.09085937 0.0309375 3.16796875 0.046875 C5.8125 0.25 5.8125 0.25 7.8125 1.25 C7.8125 5.87 7.8125 10.49 7.8125 15.25 C6.29269531 15.28867188 6.29269531 15.28867188 4.7421875 15.328125 C3.39058403 15.38444181 2.03902319 15.44178833 0.6875 15.5 C0.02234375 15.51417969 -0.6428125 15.52835938 -1.328125 15.54296875 C-6.38889612 15.79104577 -9.33329544 16.9963089 -13.1875 20.25 C-17.67367983 25.51950548 -17.77530321 29.81767707 -17.76171875 36.42578125 C-17.77588333 37.39154587 -17.79004791 38.35731049 -17.80464172 39.3523407 C-17.84642951 42.42250863 -17.86176858 45.49208805 -17.875 48.5625 C-17.90402564 51.65049257 -17.93849172 54.73833547 -17.97749329 57.82621765 C-18.00004212 59.74477865 -18.01582396 61.66343293 -18.02433777 63.58210754 C-18.03137222 64.44357895 -18.03840668 65.30505035 -18.0456543 66.19262695 C-18.05087349 67.3346331 -18.05087349 67.3346331 -18.05619812 68.49971008 C-18.1875 70.25 -18.1875 70.25 -19.1875 71.25 C-21.35230797 71.3489294 -23.52043785 71.379711 -25.6875 71.375 C-26.8734375 71.37757813 -28.059375 71.38015625 -29.28125 71.3828125 C-32.1875 71.25 -32.1875 71.25 -33.1875 70.25 C-33.28698193 68.13862099 -33.31549638 66.02387714 -33.31689453 63.91015625 C-33.31952301 62.91748245 -33.31952301 62.91748245 -33.32220459 61.90475464 C-33.32662217 59.7073101 -33.32368547 57.50994542 -33.3203125 55.3125 C-33.32098557 53.79174789 -33.32195561 52.27099588 -33.32321167 50.75024414 C-33.32468851 47.55907164 -33.32253452 44.36792708 -33.31787109 41.17675781 C-33.3121738 37.0773547 -33.31545288 32.97801704 -33.32144356 28.87861633 C-33.32504954 25.73717756 -33.32391042 22.59575442 -33.32131577 19.45431519 C-33.3206466 17.94237256 -33.32147457 16.43042854 -33.32379532 14.91848755 C-33.32632245 12.80890113 -33.32248044 10.69942213 -33.31689453 8.58984375 C-33.31609894 7.38706787 -33.31530334 6.18429199 -33.31448364 4.94506836 C-33.1875 2.25 -33.1875 2.25 -32.1875 1.25 C-27.94665225 0.72527036 -24.36213675 0.56240775 -20.625 2.75 C-18.53007633 6.39334551 -18.90980454 9.08456807 -19.1875 13.25 C-18.5275 13.25 -17.8675 13.25 -17.1875 13.25 C-17.125625 12.71375 -17.06375 12.1775 -17 11.625 C-14.33979195 3.84900724 -7.98010974 -0.1982636 0 0 Z " fill="#174079" transform="translate(448.1875,94.75)"/>
<path d="M0 0 C2.30618251 1.4080461 4.52628734 2.84697398 6.75 4.375 C7.40685791 4.81980713 8.06371582 5.26461426 8.74047852 5.72290039 C10.83157772 7.14199331 12.91637211 8.56996408 15 10 C15.66177246 10.45262207 16.32354492 10.90524414 17.00537109 11.37158203 C20.98152657 14.09148864 24.94929144 16.82337275 28.91357422 19.56054688 C32.60567196 22.10777462 36.30319643 24.64710912 40 27.1875 C41.35418937 28.11845656 42.70835822 29.04944296 44.0625 29.98046875 C45.031875 30.64691406 46.00125 31.31335938 47 32 C45.40483572 36.78549285 41.32266762 38.57518524 37.25 41.3125 C36.43789062 41.88806641 35.62578125 42.46363281 34.7890625 43.05664062 C33.99757812 43.59095703 33.20609375 44.12527344 32.390625 44.67578125 C31.66907227 45.16989502 30.94751953 45.66400879 30.20410156 46.1730957 C28 47 28 47 25.43920898 46.27880859 C23.40588379 45.21279344 21.48215297 44.14717801 19.58203125 42.86328125 C18.97262695 42.45440674 18.36322266 42.04553223 17.73535156 41.62426758 C17.10081055 41.19138428 16.46626953 40.75850098 15.8125 40.3125 C15.14831055 39.86479248 14.48412109 39.41708496 13.79980469 38.95581055 C9.29471419 35.9100156 4.81742832 32.82652579 0.4296875 29.61328125 C-2.03117721 27.8972535 -2.03117721 27.8972535 -5.0546875 26.54296875 C-8.25455337 24.93489366 -10.54963983 23.62089805 -13 21 C-14.5092868 15.71164624 -14.44073254 11.29817773 -13 6 C-9.77936989 1.67062837 -5.51829849 -2.41425559 0 0 Z " fill="#3C7FC7" transform="translate(164,130)"/>
<path d="M0 0 C5.07663166 0.3502417 8.54137363 2.27446972 12.6484375 5.078125 C13.26465973 5.48657654 13.88088196 5.89502808 14.51577759 6.31585693 C16.47543666 7.61766787 18.42531464 8.93331055 20.375 10.25 C22.31533483 11.54629441 24.25755633 12.83970814 26.20048523 14.1321106 C27.4488561 14.96538161 28.69436493 15.80295784 29.93684387 16.64498901 C33.16478699 18.82594142 36.42298993 20.79724587 39.84765625 22.6484375 C43 25 43 25 44.09765625 28.5234375 C44.00535055 38.63603987 44.00535055 38.63603987 41.10546875 42.5703125 C38.76853352 44.48481665 36.82219235 45.9159791 34 47 C30.67664047 46.51671723 28.41638646 45.14010369 25.66210938 43.27197266 C24.81442993 42.70112946 23.96675049 42.13028625 23.09338379 41.54214478 C22.18600464 40.92237762 21.27862549 40.30261047 20.34375 39.6640625 C18.93482483 38.7113295 18.93482483 38.7113295 17.49743652 37.73934937 C14.49457042 35.70666159 11.49734058 33.6658243 8.5 31.625 C6.48081521 30.25730086 4.46128788 28.89010729 2.44140625 27.5234375 C-1.2617641 25.01416465 -4.96453591 22.50433099 -8.66210938 19.98681641 C-9.40505249 19.48131256 -10.14799561 18.97580872 -10.91345215 18.45498657 C-12.97877936 17.01479753 -14.99515067 15.52295931 -17 14 C-15.89342201 10.68026604 -15.45585107 10.35599822 -12.65625 8.5546875 C-11.98722656 8.11769531 -11.31820312 7.68070312 -10.62890625 7.23046875 C-9.92636719 6.78316406 -9.22382812 6.33585937 -8.5 5.875 C-4.02450323 3.21312577 -4.02450323 3.21312577 0 0 Z " fill="#72B4E1" transform="translate(102,74)"/>
<path d="M0 0 C1.08410156 0.00257812 2.16820312 0.00515625 3.28515625 0.0078125 C4.90744141 0.00394531 4.90744141 0.00394531 6.5625 0 C9.34765625 0.1328125 9.34765625 0.1328125 11.34765625 1.1328125 C11.37078214 9.9816364 11.38857259 18.83044997 11.39946842 27.67929745 C11.40469671 31.78775535 11.41179338 35.89619264 11.4230957 40.00463867 C11.4339265 43.96628078 11.43993349 47.92790302 11.44253349 51.88955879 C11.44438739 53.40429561 11.44800735 54.91903129 11.45338631 56.43375969 C11.46059932 58.54823063 11.46164708 60.66261844 11.46118164 62.77709961 C11.46340225 63.98289169 11.46562286 65.18868378 11.46791077 66.43101501 C11.34765625 69.1328125 11.34765625 69.1328125 10.34765625 70.1328125 C8.18284828 70.2317419 6.0147184 70.2625235 3.84765625 70.2578125 C2.66171875 70.26039063 1.47578125 70.26296875 0.25390625 70.265625 C-2.65234375 70.1328125 -2.65234375 70.1328125 -3.65234375 69.1328125 C-3.75182568 67.02143349 -3.78034013 64.90668964 -3.78173828 62.79296875 C-3.78436676 61.80029495 -3.78436676 61.80029495 -3.78704834 60.78756714 C-3.79146592 58.5901226 -3.78852922 56.39275792 -3.78515625 54.1953125 C-3.78582932 52.67456039 -3.78679936 51.15380838 -3.78805542 49.63305664 C-3.78953226 46.44188414 -3.78737827 43.25073958 -3.78271484 40.05957031 C-3.77701755 35.9601672 -3.78029663 31.86082954 -3.78628731 27.76142883 C-3.78989329 24.61999006 -3.78875417 21.47856692 -3.78615952 18.33712769 C-3.78549035 16.82518506 -3.78631832 15.31324104 -3.78863907 13.80130005 C-3.7911662 11.69171363 -3.78732419 9.58223463 -3.78173828 7.47265625 C-3.78094269 6.26988037 -3.78014709 5.06710449 -3.77932739 3.82788086 C-3.60976683 0.2291708 -3.59310383 0.17991978 0 0 Z " fill="#1E457C" transform="translate(700.65234375,95.8671875)"/>
<path d="M0 0 C6.82107949 0.37625796 12.86262243 0.8498686 19.1875 3.5 C20.27417969 3.9434375 21.36085937 4.386875 22.48046875 4.84375 C25 6 25 6 26 7 C26.43514339 11.00073783 26.57082416 15.00449725 26.6796875 19.02612305 C26.74893711 21.03171664 26.88180887 23.03478712 27.015625 25.03710938 C27.2476215 34.62146467 27.2476215 34.62146467 23.60351562 38.64794922 C20.81661052 40.68025889 18.04298924 42.38316876 15 44 C14.01 44.66 13.02 45.32 12 46 C7.4578835 45.40789598 3.26179038 43.17462671 0 40 C-1.08594301 36.90150894 -0.93937683 34.01363558 -0.78125 30.76171875 C-0.76993042 29.88095169 -0.75861084 29.00018463 -0.74694824 28.09272766 C-0.70227979 25.28874006 -0.60195033 22.48993186 -0.5 19.6875 C-0.45985999 17.78327717 -0.4233601 15.87897389 -0.390625 13.97460938 C-0.3025772 9.31442084 -0.16460791 4.65808729 0 0 Z " fill="#9AD0ED" transform="translate(151,75)"/>
<path d="M0 0 C2 1.375 2 1.375 4 3 C4 3.66 4 4.32 4 5 C14.395 4.505 14.395 4.505 25 4 C25 16.21 25 28.42 25 41 C5.46498441 33.18599376 5.46498441 33.18599376 0 26 C-2.4605779 17.60027524 -1.24347277 8.54265794 0 0 Z " fill="#1D4AA6" transform="translate(120,162)"/>
<path d="M0 0 C1.90724051 23.51374134 1.90724051 23.51374134 -2.30859375 28.59375 C-5.12959817 30.84156228 -7.72842359 32.49671978 -11 34 C-11.6396167 34.39614502 -12.2792334 34.79229004 -12.93823242 35.20043945 C-15 36 -15 36 -16.87524414 35.34082031 C-17.50551514 34.92413086 -18.13578613 34.50744141 -18.78515625 34.078125 C-19.48060547 33.62953125 -20.17605469 33.1809375 -20.89257812 32.71875 C-21.60865234 32.2340625 -22.32472656 31.749375 -23.0625 31.25 C-24.14241211 30.54617187 -24.14241211 30.54617187 -25.24414062 29.828125 C-27.17334186 28.56706867 -29.08884697 27.28817754 -31 26 C-31.99 25.34 -32.98 24.68 -34 24 C-32.54470373 20.3694032 -30.77956887 18.87003253 -27.52734375 16.7578125 C-26.62693359 16.16613281 -25.72652344 15.57445312 -24.79882812 14.96484375 C-23.3824707 14.05412109 -23.3824707 14.05412109 -21.9375 13.125 C-20.56174805 12.22587891 -20.56174805 12.22587891 -19.15820312 11.30859375 C-17.33228994 10.11547401 -15.50337686 8.92693169 -13.67138672 7.74316406 C-10.3381861 5.56814556 -7.05467651 3.32335315 -3.77954102 1.06201172 C-2 0 -2 0 0 0 Z " fill="#AFDCF1" transform="translate(145,47)"/>
<path d="M0 0 C4.15207294 2.00618637 7.90997071 4.4593379 11.75 7 C12.44738281 7.45117188 13.14476562 7.90234375 13.86328125 8.3671875 C15.61243603 9.52416268 17.31123649 10.75653234 19 12 C19 12.66 19 13.32 19 14 C17.35449219 15.29345703 17.35449219 15.29345703 15.046875 16.7578125 C14.20495605 17.29768799 13.36303711 17.83756348 12.49560547 18.39379883 C11.58955566 18.96509521 10.68350586 19.5363916 9.75 20.125 C7.91362395 21.2974905 6.07768531 22.47066637 4.2421875 23.64453125 C3.34467773 24.2163916 2.44716797 24.78825195 1.52246094 25.37744141 C-2.66805469 28.07296665 -6.77603338 30.88580197 -10.8828125 33.70703125 C-13 35 -13 35 -15 35 C-17.39341239 13.52065803 -17.39341239 13.52065803 -13.52783203 7.83447266 C-9.56201908 4.17970386 -4.9733604 1.98342349 0 0 Z " fill="#1F4CAB" transform="translate(166,168)"/>
<path d="M0 0 C0 13.2 0 26.4 0 40 C-11.46185884 37.45292026 -15.12197765 33.74739707 -21.421875 24.5625 C-23.13255903 21.78475563 -24.58280127 18.93684556 -26 16 C-2 0 -2 0 0 0 Z " fill="#92CAEB" transform="translate(215,93)"/>
<path d="M0 0 C5.39715928 2.69857964 10.36101056 6.01546803 15.41015625 9.30419922 C17.25363599 10.5023632 19.10326625 11.69062212 20.953125 12.87890625 C22.12018444 13.63741685 23.28686484 14.39651103 24.453125 15.15625 C25.51692383 15.84525391 26.58072266 16.53425781 27.67675781 17.24414062 C28.8267627 18.11329102 28.8267627 18.11329102 30 19 C30 19.66 30 20.32 30 21 C28.18334961 22.43286133 28.18334961 22.43286133 25.65234375 24.08203125 C24.73646484 24.68466797 23.82058594 25.28730469 22.87695312 25.90820312 C21.90693359 26.53662109 20.93691406 27.16503906 19.9375 27.8125 C18.05009027 29.0471214 16.16335795 30.28277908 14.27734375 31.51953125 C13.3735498 32.10943848 12.46975586 32.6993457 11.53857422 33.30712891 C9.29524882 34.80311067 7.11301054 36.35190442 4.94140625 37.94921875 C2 40 2 40 0 40 C0 26.8 0 13.6 0 0 Z " fill="#9DD3F0" transform="translate(182,67)"/>
<path d="M0 0 C0 12.87 0 25.74 0 39 C-5.60928064 37.59767984 -9.7724387 34.48669536 -14.55566406 31.30834961 C-16.24947292 30.18784868 -17.95610694 29.08901257 -19.6640625 27.99023438 C-20.72882813 27.28576172 -21.79359375 26.58128906 -22.890625 25.85546875 C-23.87063477 25.21246826 -24.85064453 24.56946777 -25.86035156 23.90698242 C-26.56643555 23.27767822 -27.27251953 22.64837402 -28 22 C-28 20.68 -28 19.36 -28 18 C-26.36694336 16.43188477 -26.36694336 16.43188477 -24.08984375 14.94140625 C-23.26419922 14.39033203 -22.43855469 13.83925781 -21.58789062 13.27148438 C-20.27594727 12.42553711 -20.27594727 12.42553711 -18.9375 11.5625 C-17.2379168 10.43935338 -15.5386924 9.31566362 -13.83984375 8.19140625 C-13.0185498 7.65531738 -12.19725586 7.11922852 -11.35107422 6.56689453 C-9.19073194 5.12711502 -7.09435092 3.62854544 -5.00390625 2.08984375 C-2 0 -2 0 0 0 Z " fill="#1F51A9" transform="translate(114,143)"/>
<path d="M0 0 C3.91919028 1.41379216 7.14311814 3.26921349 10.59765625 5.58984375 C11.64630859 6.29173828 12.69496094 6.99363281 13.77539062 7.71679688 C14.86013672 8.44962891 15.94488281 9.18246094 17.0625 9.9375 C18.15111328 10.66646484 19.23972656 11.39542969 20.36132812 12.14648438 C23.24962901 14.08564515 26.13600118 16.02511834 29 18 C29.76465576 18.46647949 30.52931152 18.93295898 31.31713867 19.41357422 C33 21 33 21 33.45410156 23.36010742 C33.4331543 24.26607666 33.41220703 25.1720459 33.390625 26.10546875 C33.37773438 27.08837891 33.36484375 28.07128906 33.3515625 29.08398438 C33.31804687 30.10814453 33.28453125 31.13230469 33.25 32.1875 C33.23195312 33.22326172 33.21390625 34.25902344 33.1953125 35.32617188 C33.14814437 37.88504284 33.08234057 40.44205842 33 43 C30.69 44.32 28.38 45.64 26 47 C25.61328125 46.40832031 25.2265625 45.81664062 24.828125 45.20703125 C24.30734375 44.41683594 23.7865625 43.62664062 23.25 42.8125 C22.73953125 42.03519531 22.2290625 41.25789063 21.703125 40.45703125 C20.06546517 37.9897931 20.06546517 37.9897931 18.14453125 35.91015625 C14.88706211 31.48972909 12.75344785 26.58819187 10.4375 21.625 C9.95603516 20.60921875 9.47457031 19.5934375 8.97851562 18.546875 C6.99319051 14.34137201 5.0369367 10.14445966 3.28515625 5.8359375 C2.31031237 2.89262054 2.31031237 2.89262054 0 2 C0 1.34 0 0.68 0 0 Z " fill="#7AB4DF" transform="translate(81,93)"/>
<path d="M0 0 C4.35942009 1.74376804 7.9895114 3.76291149 11.875 6.3125 C12.46152344 6.69083984 13.04804688 7.06917969 13.65234375 7.45898438 C14.84092146 8.23090682 16.02094281 9.01616044 17.19213867 9.81420898 C18.9965044 11.03639824 18.9965044 11.03639824 20.98950195 12.06274414 C23.00971393 13.23282514 24.47922614 14.22326803 26 16 C26.83776244 19.31496499 26.66765122 22.42093086 26.4375 25.8125 C26.40591797 26.69615234 26.37433594 27.57980469 26.34179688 28.49023438 C26.25963742 30.6615914 26.13408489 32.83123013 26 35 C25.12859375 34.66226563 24.2571875 34.32453125 23.359375 33.9765625 C22.16828125 33.53054687 20.9771875 33.08453125 19.75 32.625 C18.58984375 32.18414062 17.4296875 31.74328125 16.234375 31.2890625 C10.95231251 29.68105455 5.44627682 28.9077128 0 28 C0 18.76 0 9.52 0 0 Z " fill="#CAE9F6" transform="translate(151,47)"/>
<path d="M0 0 C2.375 1.6875 2.375 1.6875 4 4 C4.25 6.375 4.25 6.375 3 9 C-4.37901162 16.55061655 -13.34097653 18.27462766 -23.5 18.4375 C-30.86692776 18.40764171 -38.1336364 17.60001411 -43.7578125 12.36328125 C-44.37269531 11.68845703 -44.37269531 11.68845703 -45 11 C-43.68 11 -42.36 11 -41 11 C-40.34 9.68 -39.68 8.36 -39 7 C-38.34 7 -37.68 7 -37 7 C-37 5.02 -37 3.04 -37 1 C-32.28625 2.833125 -32.28625 2.833125 -30.2109375 4.04296875 C-24.73145594 6.41482914 -17.5849004 5.99981997 -12.1015625 3.87890625 C-10.44597521 3.00139527 -8.81380676 2.07700416 -7.21875 1.09375 C-4.58645767 -0.20385889 -2.90085179 -0.32072124 0 0 Z " fill="#16427E" transform="translate(395,149)"/>
<path d="M0 0 C5.07274749 5.14129813 6 7.48889517 6 15 C-5.22 15 -16.44 15 -28 15 C-26.95391228 7.67738599 -25.80743567 4.59687799 -20.5 -0.3125 C-14.14137968 -4.60456872 -6.29105706 -4.19403804 0 0 Z " fill="#F0F3F5" transform="translate(381,109)"/>
<path d="M0 0 C1.21983265 12.36774774 1.21983265 12.36774774 -1.640625 16.1953125 C-3.70664992 17.71804938 -5.68323286 18.90080391 -8 20 C-8.64582031 20.36738281 -9.29164063 20.73476562 -9.95703125 21.11328125 C-13.84363301 22.80020018 -17.86535072 22.63455845 -22 22 C-25.125 20 -25.125 20 -27 17 C-27.80039837 11.95749024 -27.64120101 10.09624689 -25.0625 5.6875 C-18.38550339 -1.13828762 -8.85540387 -0.36954545 0 0 Z " fill="#F5F7F8" transform="translate(664,134)"/>
<path d="M0 0 C1.06141405 13.3940344 1.06141405 13.3940344 -1.34765625 17.0390625 C-3.18863887 18.3580962 -4.88189766 19.20786417 -7 20 C-7.94875 20.433125 -8.8975 20.86625 -9.875 21.3125 C-13.9718698 22.21381136 -17.83312789 22.66543205 -22 22 C-24.50160818 20.12379387 -25.61945652 18.76108697 -27 16 C-27.29016749 12.7356157 -27.17090991 10.4486385 -26 7.375 C-22.3639581 3.05720024 -17.54191649 1.03701773 -12 0.25 C-7.99988602 -0.09127957 -4.01167914 -0.07163713 0 0 Z " fill="#F6F8F8" transform="translate(562,134)"/>
<path d="M0 0 C0.64324219 0.4125 1.28648438 0.825 1.94921875 1.25 C2.85285156 1.8275 3.75648437 2.405 4.6875 3 C5.6775 3.6496875 6.6675 4.299375 7.6875 4.96875 C10.0231026 6.40095914 12.16379437 7.58280894 14.625 8.71875 C18.27479041 10.5436452 21.08791807 12.13265052 24 15 C25.68404439 20.3299137 25.57535831 24.65207312 24 30 C21.50341296 33.33727452 18.90417038 35.50038489 15 37 C12.94995117 36.80224609 12.94995117 36.80224609 11 36 C10.06079102 34.28955078 10.06079102 34.28955078 9.44140625 32.0703125 C9.20309082 31.25594727 8.96477539 30.44158203 8.71923828 29.60253906 C8.48188965 28.74370117 8.24454102 27.88486328 8 27 C7.49101233 25.32989439 6.97928311 23.6606219 6.46484375 21.9921875 C5.95429795 20.28688617 5.44519101 18.58115342 4.9375 16.875 C4.68162109 16.02035156 4.42574219 15.16570312 4.16210938 14.28515625 C2.74211383 9.53236909 1.35161243 4.77267929 0 0 Z " fill="#90C8E8" transform="translate(121,84)"/>
<path d="M0 0 C4.49112639 4.01879759 7.12061761 8.33113719 9.9375 13.625 C10.3713501 14.42244629 10.8052002 15.21989258 11.25219727 16.04150391 C12.5100103 18.35651736 13.75672744 20.67715243 15 23 C16.14402262 25.12597537 17.28948734 27.25117657 18.4375 29.375 C18.86933594 30.18710938 19.30117187 30.99921875 19.74609375 31.8359375 C20.97417925 34.06259159 20.97417925 34.06259159 22.66015625 36.1640625 C24 38 24 38 24 40 C19.18961992 38.33994727 15.13804089 35.71778563 10.875 33 C10.15957031 32.54882812 9.44414062 32.09765625 8.70703125 31.6328125 C5.78258825 29.78522047 2.87843455 27.91895637 0 26 C-0.34057617 23.38623047 -0.34057617 23.38623047 -0.29296875 20.1171875 C-0.2784668 18.36728516 -0.2784668 18.36728516 -0.26367188 16.58203125 C-0.23853516 15.35871094 -0.21339844 14.13539063 -0.1875 12.875 C-0.17396484 11.64394531 -0.16042969 10.41289062 -0.14648438 9.14453125 C-0.11103543 6.09592157 -0.06162079 3.048175 0 0 Z " fill="#15399C" transform="translate(120,162)"/>
<path d="M0 0 C3.5386994 1.65139305 4.81070153 2.71605229 7 6 C7.53665542 10.02491565 7.14921994 11.7363781 5.125 15.3125 C3 18 3 18 1 19 C-6.01699346 19.69019608 -6.01699346 19.69019608 -9.9375 16.9375 C-12.43209094 13.38459775 -13.07615714 11.34095695 -13 7 C-9.51086842 0.50299636 -7.26338252 -0.49243271 0 0 Z " fill="#1D4680" transform="translate(707,67)"/>
<path d="M0 0 C0.33 0 0.66 0 1 0 C2.7439543 19.66643849 2.7439543 19.66643849 -0.01513672 24.94042969 C-2.77099664 28.18004758 -6.21766582 30.1669414 -10 32 C-11.01320312 32.68642578 -11.01320312 32.68642578 -12.046875 33.38671875 C-14 34 -14 34 -16.75 32.625 C-17.4925 32.08875 -18.235 31.5525 -19 31 C-15.33859301 23.98616551 -11.36455644 17.19294296 -7.25 10.4375 C-6.76619873 9.63973145 -6.28239746 8.84196289 -5.78393555 8.02001953 C-5.32414307 7.26962402 -4.86435059 6.51922852 -4.390625 5.74609375 C-3.97844727 5.07247803 -3.56626953 4.3988623 -3.14160156 3.70483398 C-2 2 -2 2 0 0 Z " fill="#C8E7F5" transform="translate(144,49)"/>
<path d="M0 0 C0.33 0 0.66 0 1 0 C1 9.9 1 19.8 1 30 C-1.76565382 30.92188461 -3.38283702 31.11785222 -6.23046875 31.09765625 C-7.03291016 31.09443359 -7.83535156 31.09121094 -8.66210938 31.08789062 C-9.49548828 31.07951172 -10.32886719 31.07113281 -11.1875 31.0625 C-12.03248047 31.05798828 -12.87746094 31.05347656 -13.74804688 31.04882812 C-15.83206155 31.03705403 -17.91603977 31.0191189 -20 31 C-19.01 30.67 -18.02 30.34 -17 30 C-16.28735387 28.01591836 -15.62703908 26.01277581 -15 24 C-13.50366211 21.4387207 -13.50366211 21.4387207 -11.77734375 18.92578125 C-11.15666016 18.01119141 -10.53597656 17.09660156 -9.89648438 16.15429688 C-8.92678711 14.74760742 -8.92678711 14.74760742 -7.9375 13.3125 C-6.65188859 11.43568572 -5.3691957 9.55686794 -4.08984375 7.67578125 C-3.52128662 6.84989502 -2.95272949 6.02400879 -2.36694336 5.1730957 C-0.85468125 2.95979679 -0.85468125 2.95979679 0 0 Z " fill="#3371BE" transform="translate(144,136)"/>
<path d="M0 0 C3.0625 1.9375 3.0625 1.9375 5 5 C5.62337099 8.12798656 5.6483903 10.87487559 5 14 C3.12379387 16.50160818 1.76108697 17.61945652 -1 19 C-5.21416041 19.47707476 -7.32364792 19.43171409 -10.9375 17.125 C-13.82788066 12.74563537 -13.89550934 9.10612535 -13 4 C-10.21393039 -1.08760537 -5.23994182 -1.04425887 0 0 Z " fill="#17447F" transform="translate(606,148)"/>
<path d="M0 0 C2.475 0.99 2.475 0.99 5 2 C5 9.26 5 16.52 5 24 C2.69 25.32 0.38 26.64 -2 28 C-2.38671875 27.40832031 -2.7734375 26.81664062 -3.171875 26.20703125 C-5.47189066 22.71715601 -7.74499051 19.31540648 -10.375 16.0625 C-12 14 -12 14 -12 12 C-11.01 12 -10.02 12 -9 12 C-8.6596875 10.948125 -8.6596875 10.948125 -8.3125 9.875 C-6.50141965 5.90787162 -4.0021836 2.0010918 0 0 Z " fill="#6BA8D8" transform="translate(109,112)"/>
<path d="M0 0 C3 1 3 1 4.42626953 3.45263672 C4.90692871 4.51756348 5.38758789 5.58249023 5.8828125 6.6796875 C6.41003906 7.83597656 6.93726562 8.99226563 7.48046875 10.18359375 C8.02874294 11.41401923 8.57691896 12.64448847 9.125 13.875 C9.68006175 15.09807775 10.23604087 16.32073961 10.79296875 17.54296875 C14.79226514 26.37679542 14.79226514 26.37679542 16 30 C14.43662827 29.54464901 12.87434151 29.08557224 11.3125 28.625 C10.44238281 28.36976562 9.57226562 28.11453125 8.67578125 27.8515625 C6.07486881 27.02382686 3.53422977 26.01369191 1 25 C1.33 37.54 1.66 50.08 2 63 C1.34 63 0.68 63 0 63 C0 42.21 0 21.42 0 0 Z " fill="#4B8DCA" transform="translate(81,95)"/>
<path d="M0 0 C5.39715928 2.69857964 10.36101056 6.01546803 15.41015625 9.30419922 C17.25363599 10.5023632 19.10326625 11.69062212 20.953125 12.87890625 C22.12018444 13.63741685 23.28686484 14.39651103 24.453125 15.15625 C25.51692383 15.84525391 26.58072266 16.53425781 27.67675781 17.24414062 C28.8267627 18.11329102 28.8267627 18.11329102 30 19 C30 19.66 30 20.32 30 21 C29.28287842 20.68683838 28.56575684 20.37367676 27.8269043 20.05102539 C25.06702 19.02491762 22.68287773 18.54280988 19.76953125 18.18359375 C18.80208984 18.05919922 17.83464844 17.93480469 16.83789062 17.80664062 C15.83951172 17.68482422 14.84113281 17.56300781 13.8125 17.4375 C11.81861218 17.18937739 9.82509815 16.93822638 7.83203125 16.68359375 C6.95264893 16.57587646 6.0732666 16.46815918 5.16723633 16.35717773 C3 16 3 16 1 15 C1.33 23.25 1.66 31.5 2 40 C1.34 40 0.68 40 0 40 C0 26.8 0 13.6 0 0 Z " fill="#BCE2F3" transform="translate(182,67)"/>
<path d="M0 0 C9.9 0 19.8 0 30 0 C28.53669886 4.38990342 25.48718099 5.79641299 21.75 8.3125 C21.08097656 8.79267578 20.41195312 9.27285156 19.72265625 9.76757812 C14.74684869 13.13529071 14.74684869 13.13529071 11.34765625 12.51953125 C10.57292969 12.01808594 9.79820312 11.51664063 9 11 C8.11699219 10.43023437 7.23398438 9.86046875 6.32421875 9.2734375 C5.45410156 8.64695313 4.58398438 8.02046875 3.6875 7.375 C2.80449219 6.74335938 1.92148438 6.11171875 1.01171875 5.4609375 C0.34785156 4.97882813 -0.31601563 4.49671875 -1 4 C-0.67 2.68 -0.34 1.36 0 0 Z " fill="#2659B1" transform="translate(178,164)"/>
<path d="M0 0 C7.75493514 -0.09928082 15.31068715 -0.06059488 23 1 C23 6.28 23 11.56 23 17 C19.14642148 16.03660537 17.08446135 14.95131456 13.8125 12.8125 C12.8534375 12.18859375 11.894375 11.5646875 10.90625 10.921875 C9.46765625 9.97054687 9.46765625 9.97054687 8 9 C7.1028125 8.40703125 6.205625 7.8140625 5.28125 7.203125 C3.18295657 5.8086895 1.08907674 4.40819247 -1 3 C-0.67 2.01 -0.34 1.02 0 0 Z " fill="#173B9C" transform="translate(90,164)"/>
<path d="M0 0 C0.33 0 0.66 0 1 0 C2.90472271 25.65914564 2.90472271 25.65914564 -1.34375 30.609375 C-4.23848603 32.69663203 -6.54797123 34.10077398 -10 35 C-10.99 34.67 -11.98 34.34 -13 34 C-12.55269531 32.79085937 -12.10539063 31.58171875 -11.64453125 30.3359375 C-11.03370839 28.68234551 -10.42304229 27.02869561 -9.8125 25.375 C-9.49587402 24.51793457 -9.17924805 23.66086914 -8.85302734 22.77783203 C-6.49094056 16.36952282 -4.19420921 9.94101053 -1.9453125 3.4921875 C-1 1 -1 1 0 0 Z " fill="#84C2E9" transform="translate(176,84)"/>
<path d="M0 0 C4.79734788 0.38934997 7.89081667 1.86547227 11.875 4.5 C12.84179688 5.1290625 13.80859375 5.758125 14.8046875 6.40625 C15.52914062 6.9321875 16.25359375 7.458125 17 8 C17 8.33 17 8.66 17 9 C6.34093 10.78964322 -4.19402929 12.43739111 -15 13 C-15.33 12.34 -15.66 11.68 -16 11 C-14.92878906 10.28972656 -13.85757813 9.57945313 -12.75390625 8.84765625 C-11.35673055 7.91933146 -9.95959733 6.99094274 -8.5625 6.0625 C-7.85544922 5.59392578 -7.14839844 5.12535156 -6.41992188 4.64257812 C-5.74638672 4.19462891 -5.07285156 3.74667969 -4.37890625 3.28515625 C-3.7557251 2.87144775 -3.13254395 2.45773926 -2.49047852 2.03149414 C-1.01980114 1.0794855 -1.01980114 1.0794855 0 0 Z " fill="#A2D3EC" transform="translate(102,74)"/>
<path d="M0 0 C2.79209106 0.93069702 4.02311684 1.65106596 5.8125 3.9375 C4.44266497 7.09865776 3.8234362 7.9302092 0.8125 9.9375 C-3.13413444 9.6259236 -5.98401616 8.22570274 -9.1875 5.9375 C-9.1875 5.2775 -9.1875 4.6175 -9.1875 3.9375 C-6.01002469 1.2896039 -4.20014649 -0.08235581 0 0 Z " fill="#71B0DA" transform="translate(149.1875,120.0625)"/>
<path d="M0 0 C3.70500184 1.48200074 6.67262 2.908504 10 5 C8.89904638 8.30286086 8.3103981 8.78510901 5.5625 10.6875 C4.63630859 11.34298828 4.63630859 11.34298828 3.69140625 12.01171875 C2 13 2 13 0 13 C0 8.71 0 4.42 0 0 Z " fill="#3767BC" transform="translate(151,158)"/>
<path d="M0 0 C0 4.29 0 8.58 0 13 C-3.48763093 11.25618453 -6.03368051 9.47193291 -9 7 C-7.4576387 2.93377477 -4.5679954 0 0 0 Z " fill="#80BBE4" transform="translate(177,119)"/>
<path d="M0 0 C0 3.96 0 7.92 0 12 C-4.44607497 10.22157001 -5.9797308 9.35585467 -9 6 C-7.8803014 4.99406757 -6.7540588 3.9954151 -5.625 3 C-4.68527344 2.1646875 -4.68527344 2.1646875 -3.7265625 1.3125 C-2 0 -2 0 0 0 Z " fill="#89C7EB" transform="translate(145,80)"/>
<path d="M0 0 C4.44607497 1.77842999 5.9797308 2.64414533 9 6 C7.68969568 7.00287529 6.37669473 8.00222825 5.0625 9 C3.96615234 9.8353125 3.96615234 9.8353125 2.84765625 10.6875 C1 12 1 12 0 12 C0 8.04 0 4.08 0 0 Z " fill="#7FB4DC" transform="translate(120,119)"/>
<path d="M0 0 C0 12.87 0 25.74 0 39 C-0.99 38.67 -1.98 38.34 -3 38 C-2.34 38 -1.68 38 -1 38 C-1 27.44 -1 16.88 -1 6 C-1.99 6 -2.98 6 -4 6 C-4 5.34 -4 4.68 -4 4 C-4.66 3.67 -5.32 3.34 -6 3 C-2.25 0 -2.25 0 0 0 Z " fill="#365EAA" transform="translate(114,143)"/>
<path d="M0 0 C-1.423125 0.3403125 -1.423125 0.3403125 -2.875 0.6875 C-6.18291796 1.66835682 -6.18291796 1.66835682 -7.1875 4.5 C-7.455625 5.325 -7.72375 6.15 -8 7 C-8.99 7.66 -9.98 8.32 -11 9 C-11.66 8.34 -12.32 7.68 -13 7 C-13.33 7.99 -13.66 8.98 -14 10 C-16.5625 11.6875 -16.5625 11.6875 -19 13 C-17.30212034 6.58578794 -12.22233519 3.35083119 -6.8125 0.0625 C-3.91181847 -1.03331302 -2.81051256 -1.18906301 0 0 Z " fill="#204C81" transform="translate(540,129)"/>
<path d="M0 0 C11.88 0 23.76 0 36 0 C36 0.66 36 1.32 36 2 C25.44 2 14.88 2 4 2 C3.67 2.99 3.34 3.98 3 5 C1.68 4.34 0.36 3.68 -1 3 C-0.67 2.01 -0.34 1.02 0 0 Z " fill="#336DBB" transform="translate(174,163)"/>
<path d="M0 0 C0.33 0.99 0.66 1.98 1 3 C-0.4375 5.1875 -0.4375 5.1875 -2 7 C-1.67 7.66 -1.34 8.32 -1 9 C-3.64 10.65 -6.28 12.3 -9 14 C-9 11 -9 11 -7.5 9.3125 C-7.005 8.879375 -6.51 8.44625 -6 8 C-6.66 7.34 -7.32 6.68 -8 6 C-5.36 4.02 -2.72 2.04 0 0 Z " fill="#E7EEF4" transform="translate(161,164)"/>
<path d="M0 0 C0.66 0 1.32 0 2 0 C2.05402274 2.10388569 2.09280256 4.20816714 2.125 6.3125 C2.14820313 7.48425781 2.17140625 8.65601563 2.1953125 9.86328125 C2 13 2 13 0 16 C0 15.34 0 14.68 0 14 C-0.66 13.67 -1.32 13.34 -2 13 C-1.85769192 11.58297487 -1.71099254 10.1663904 -1.5625 8.75 C-1.48128906 7.96109375 -1.40007812 7.1721875 -1.31640625 6.359375 C-1.02365007 4.17635361 -0.57935581 2.1226818 0 0 Z " fill="#1D4775" transform="translate(509,138)"/>
<path d="M0 0 C0.99 0 1.98 0 3 0 C1.55813953 4.56589147 1.55813953 4.56589147 -0.6875 6.3125 C-3.83356663 7.2478171 -6.73924509 7.12541365 -10 7 C-10 6.34 -10 5.68 -10 5 C-8.906875 4.731875 -7.81375 4.46375 -6.6875 4.1875 C-3.21307994 3.06861896 -2.30547678 2.53602446 0 0 Z " fill="#204C84" transform="translate(608,160)"/>
<path d="M0 0 C-0.721875 0.391875 -1.44375 0.78375 -2.1875 1.1875 C-5.227326 3.14649898 -7.52127727 5.37963597 -10 8 C-11 5 -11 5 -11 2 C-3.57142857 -1.57142857 -3.57142857 -1.57142857 0 0 Z " fill="#285387" transform="translate(644,128)"/>
<path d="M0 0 C3.86107457 2.57404971 3.94319692 4.61020259 5 9 C3.35 9.66 1.7 10.32 0 11 C0 7.37 0 3.74 0 0 Z " fill="#89C9EB" transform="translate(183,95)"/>
<path d="M0 0 C0 3 0 3 -1.6875 4.75 C-4 6 -4 6 -6.75 5.6875 C-7.4925 5.460625 -8.235 5.23375 -9 5 C-9 4.01 -9 3.02 -9 2 C-6.03 1.34 -3.06 0.68 0 0 Z " fill="#66AADC" transform="translate(154,124)"/>
<path d="M0 0 C0.66 0.33 1.32 0.66 2 1 C-0.475 5.455 -0.475 5.455 -3 10 C-3.99 10 -4.98 10 -6 10 C-5.49477778 5.62140745 -2.82172778 3.18348776 0 0 Z " fill="#1B4881" transform="translate(437,98)"/>
<path d="M0 0 C1.32 0.33 2.64 0.66 4 1 C2.52307692 5.67692308 2.52307692 5.67692308 -0.125 7.3125 C-1.053125 7.6528125 -1.053125 7.6528125 -2 8 C-1.47731534 5.23723823 -0.89130413 2.6739124 0 0 Z " fill="#0F397D" transform="translate(348,103)"/>
<path d="M0 0 C0 3.69418201 -1.28179295 5.77836178 -3 9 C-4.32 8.34 -5.64 7.68 -7 7 C-5.66667905 3.00003714 -3.5042173 2.16217663 0 0 Z " fill="#2858AA" transform="translate(92,157)"/>
<path d="M0 0 C0 2.62113708 -0.31292445 4.50935112 -1 7 C-1.99 7 -2.98 7 -4 7 C-4.103125 7.78375 -4.20625 8.5675 -4.3125 9.375 C-5 12 -5 12 -8 14 C-6.58036591 8.32146365 -3.60636039 4.46825784 0 0 Z " fill="#1F4C81" transform="translate(347,104)"/>
<path d="M0 0 C2.5 1.375 2.5 1.375 5 3 C5 3.66 5 4.32 5 5 C2.69 5.33 0.38 5.66 -2 6 C-1.125 1.125 -1.125 1.125 0 0 Z " fill="#78B6E0" transform="translate(149,120)"/>
<path d="M0 0 C0 2.97 0 5.94 0 9 C-0.33 8.01 -0.66 7.02 -1 6 C-1.99 6 -2.98 6 -4 6 C-4 5.34 -4 4.68 -4 4 C-4.66 3.67 -5.32 3.34 -6 3 C-2.25 0 -2.25 0 0 0 Z " fill="#4071BA" transform="translate(114,143)"/>
<path d="M0 0 C0.99 1.32 1.98 2.64 3 4 C1.625 5.5 1.625 5.5 0 7 C-0.66 7 -1.32 7 -2 7 C-2.33 5.02 -2.66 3.04 -3 1 C-2.01 0.67 -1.02 0.34 0 0 Z " fill="#345FBD" transform="translate(156,162)"/>
<path d="M0 0 C-1.49097658 3.7952131 -3.75700849 5.61042731 -7 8 C-6.65930765 4.84859577 -6.41923159 3.39218439 -4.0625 1.1875 C-2 0 -2 0 0 0 Z " fill="#1B45A3" transform="translate(159,174)"/>
<path d="M0 0 C1.22589844 0.01353516 1.22589844 0.01353516 2.4765625 0.02734375 C3.41628906 0.04474609 3.41628906 0.04474609 4.375 0.0625 C4.705 0.7225 5.035 1.3825 5.375 2.0625 C-0.565 2.5575 -0.565 2.5575 -6.625 3.0625 C-6.625 2.4025 -6.625 1.7425 -6.625 1.0625 C-4.21954362 -0.14022819 -2.67503047 -0.03821472 0 0 Z " fill="#0D3773" transform="translate(369.625,94.9375)"/>
<path d="M0 0 C0 3 0 3 -2.5 5.6875 C-3.325 6.450625 -4.15 7.21375 -5 8 C-5.66 7.01 -6.32 6.02 -7 5 C-4.69 3.35 -2.38 1.7 0 0 Z " fill="#4B89CA" transform="translate(159,130)"/>
<path d="M0 0 C0.33 0 0.66 0 1 0 C1.13277344 0.61488281 1.26554688 1.22976562 1.40234375 1.86328125 C1.57894531 2.67152344 1.75554688 3.47976562 1.9375 4.3125 C2.19853516 5.51326172 2.19853516 5.51326172 2.46484375 6.73828125 C2.99886159 9.145401 2.99886159 9.145401 4 12 C2.68 11.67 1.36 11.34 0 11 C0 7.37 0 3.74 0 0 Z " fill="#2C5587" transform="translate(636,144)"/>
<path d="M0 0 C1.485 0.99 1.485 0.99 3 2 C2.25 7.75 2.25 7.75 0 10 C-1.07318928 6.78043217 -0.870689 6.09578311 0 3 C0 2.01 0 1.02 0 0 Z " fill="#2B5386" transform="translate(506,100)"/>
<path d="M0 0 C0.66 0 1.32 0 2 0 C2 4.29 2 8.58 2 13 C1.01 12.67 0.02 12.34 -1 12 C-0.67 11.01 -0.34 10.02 0 9 C0.06740865 7.43881572 0.08514456 5.8749748 0.0625 4.3125 C0.05347656 3.50425781 0.04445312 2.69601563 0.03515625 1.86328125 C0.02355469 1.24839844 0.01195312 0.63351563 0 0 Z " fill="#8BC5E9" transform="translate(175,119)"/>
<path d="M0 0 C0.66 0.66 1.32 1.32 2 2 C1.875 4.4375 1.875 4.4375 1 7 C-0.32 7.99 -1.64 8.98 -3 10 C-2.01 6.7 -1.02 3.4 0 0 Z " fill="#2A568B" transform="translate(321,80)"/>
<path d="M0 0 C1.65 0.99 3.3 1.98 5 3 C4.67 4.32 4.34 5.64 4 7 C2.35 5.35 0.7 3.7 -1 2 C-0.67 1.34 -0.34 0.68 0 0 Z " fill="#214B85" transform="translate(558,107)"/>
<path d="M0 0 C1.5625 1.1875 1.5625 1.1875 3 3 C2.6875 5.6875 2.6875 5.6875 2 8 C-0.36556709 5.63443291 -0.58244041 4.25696479 -1 1 C-0.67 0.67 -0.34 0.34 0 0 Z " fill="#1F487E" transform="translate(268,105)"/>
<path d="M0 0 C3.465 1.98 3.465 1.98 7 4 C6.67 4.99 6.34 5.98 6 7 C3 5.1875 3 5.1875 0 3 C0 2.01 0 1.02 0 0 Z " fill="#4A76C1" transform="translate(154,159)"/>
<path d="M0 0 C0 3 0 3 -1 6 C-3.5625 7.6875 -3.5625 7.6875 -6 9 C-4.68775452 5.06326356 -3.08089673 2.77280706 0 0 Z " fill="#265484" transform="translate(527,133)"/>
<path d="M0 0 C-0.66 1.98 -1.32 3.96 -2 6 C-2.66 6 -3.32 6 -4 6 C-4.33 4.68 -4.66 3.36 -5 2 C-2 0 -2 0 0 0 Z " fill="#15417E" transform="translate(634,131)"/>
<path d="M0 0 C0.99 0 1.98 0 3 0 C2.25 1.9375 2.25 1.9375 1 4 C-1.125 4.75 -1.125 4.75 -3 5 C-1.125 1.125 -1.125 1.125 0 0 Z " fill="#0F3A75" transform="translate(471,99)"/>
<path d="M0 0 C0.99 0 1.98 0 3 0 C2.75 2.375 2.75 2.375 2 5 C-0.0625 6.3125 -0.0625 6.3125 -2 7 C-1.34 4.69 -0.68 2.38 0 0 Z " fill="#295080" transform="translate(313,102)"/>
<path d="M0 0 C0.33 1.32 0.66 2.64 1 4 C-0.32 4.99 -1.64 5.98 -3 7 C-3 5.68 -3 4.36 -3 3 C-2.34 3 -1.68 3 -1 3 C-0.67 2.01 -0.34 1.02 0 0 Z " fill="#1E4B7C" transform="translate(398,153)"/>
<path d="M0 0 C-0.33 0.99 -0.66 1.98 -1 3 C-4.63 2.67 -8.26 2.34 -12 2 C-12 1.67 -12 1.34 -12 1 C-10.37512529 0.83211627 -8.75009558 0.66573213 -7.125 0.5 C-6.22007812 0.4071875 -5.31515625 0.314375 -4.3828125 0.21875 C-2 0 -2 0 0 0 Z " fill="#264F82" transform="translate(382,154)"/>
<path d="M0 0 C0.33 0 0.66 0 1 0 C1.05391993 1.79133978 1.09275571 3.58313899 1.125 5.375 C1.14820313 6.37273437 1.17140625 7.37046875 1.1953125 8.3984375 C1 11 1 11 -1 13 C-1 9.98146205 -0.85049285 7.22918921 -0.5 4.25 C-0.4071875 3.45078125 -0.314375 2.6515625 -0.21875 1.828125 C-0.1465625 1.22484375 -0.074375 0.6215625 0 0 Z " fill="#365A86" transform="translate(400,119)"/>
<path d="M0 0 C0.33 0.66 0.66 1.32 1 2 C1.66 2.33 2.32 2.66 3 3 C2.01 3.33 1.02 3.66 0 4 C-0.33 4.99 -0.66 5.98 -1 7 C-1.66 7 -2.32 7 -3 7 C-1.125 2.25 -1.125 2.25 0 0 Z " fill="#1F4880" transform="translate(467,102)"/>
</svg>
